<svg xmlns="http://www.w3.org/2000/svg" xmlns:xlink="http://www.w3.org/1999/xlink" version="1.1" width="940" height="788" viewBox="0 0 940 788" xml:space="preserve">
<desc>Created with Fabric.js 3.5.0</desc>
<defs>
</defs>
<rect x="0" y="0" width="100%" height="100%" fill="rgba(255,255,255,0)"/>
<g transform="matrix(26.792 0 0 26.792 470.0005 394.0005)" id="384338">
<g style="" vector-effect="non-scaling-stroke">
		<g transform="matrix(1 0 0 1 -2 2)">
<path style="stroke: none; stroke-width: 1; stroke-dasharray: none; stroke-linecap: butt; stroke-dashoffset: 0; stroke-linejoin: miter; stroke-miterlimit: 4; is-custom-font: none; font-file-url: none; fill: rgb(70,70,70); fill-rule: nonzero; opacity: 1;" transform=" translate(-10, -14)" d="M 14.5 16.5 h -6 a 1 1 0 0 1 -1 -1 v -6 h -2 v 6 a 3 3 0 0 0 3 3 h 6 Z" stroke-linecap="round"/>
</g>
		<g transform="matrix(1 0 0 1 0 0)">
<path style="stroke: none; stroke-width: 1; stroke-dasharray: none; stroke-linecap: butt; stroke-dashoffset: 0; stroke-linejoin: miter; stroke-miterlimit: 4; is-custom-font: none; font-file-url: none; fill: rgb(70,70,70); fill-rule: nonzero; opacity: 1;" transform=" translate(-12, -12)" d="M 20.5 16.5 h -2 v -8 a 3 3 0 0 0 -3 -3 h -8 v -2 a 1 1 0 0 0 -2 0 v 2 h -2 a 1 1 0 0 0 0 2 h 12 a 1 1 0 0 1 1 1 v 12 a 1 1 0 0 0 2 0 v -2 h 2 a 1 1 0 0 0 0 -2 Z" stroke-linecap="round"/>
</g>
</g>
</g>
</svg>